<svg width="106" height="18" viewBox="0 0 106 18" fill="none" xmlns="http://www.w3.org/2000/svg">
<path d="M7.70913 14.342C6.52113 14.342 5.50113 14.138 4.64913 13.73C3.79713 13.31 3.10113 12.764 2.56113 12.092C2.02113 11.408 1.61913 10.676 1.35513 9.896C1.10313 9.104 0.977125 8.336 0.977125 7.592V7.196C0.977125 6.38 1.10913 5.576 1.37313 4.784C1.63713 3.98 2.03913 3.254 2.57912 2.606C3.13113 1.958 3.82113 1.442 4.64913 1.058C5.48913 0.661999 6.47913 0.463999 7.61913 0.463999C8.80713 0.463999 9.85713 0.685999 10.7691 1.13C11.6811 1.574 12.4071 2.192 12.9471 2.984C13.4991 3.764 13.8231 4.682 13.9191 5.738H10.9491C10.8651 5.21 10.6731 4.76 10.3731 4.388C10.0731 4.016 9.68313 3.728 9.20312 3.524C8.73513 3.32 8.20713 3.218 7.61913 3.218C7.03113 3.218 6.50913 3.32 6.05313 3.524C5.59713 3.728 5.21313 4.016 4.90113 4.388C4.60113 4.76 4.36713 5.204 4.19913 5.72C4.04313 6.224 3.96513 6.788 3.96513 7.412C3.96513 8.024 4.04313 8.588 4.19913 9.104C4.36713 9.608 4.60713 10.052 4.91913 10.436C5.24313 10.808 5.63913 11.096 6.10713 11.3C6.57513 11.492 7.10913 11.588 7.70913 11.588C8.62113 11.588 9.38913 11.366 10.0131 10.922C10.6491 10.478 11.0331 9.866 11.1651 9.086H14.1171C14.0091 10.046 13.6851 10.928 13.1451 11.732C12.6171 12.524 11.8911 13.16 10.9671 13.64C10.0551 14.108 8.96913 14.342 7.70913 14.342ZM20.7196 14.342C19.8556 14.342 19.0876 14.21 18.4156 13.946C17.7436 13.67 17.1736 13.298 16.7056 12.83C16.2496 12.362 15.9016 11.828 15.6616 11.228C15.4216 10.616 15.3016 9.974 15.3016 9.302V8.888C15.3016 8.204 15.4216 7.556 15.6616 6.944C15.9136 6.32 16.2736 5.774 16.7416 5.306C17.2216 4.838 17.7976 4.472 18.4696 4.208C19.1416 3.932 19.8916 3.794 20.7196 3.794C21.5716 3.794 22.3276 3.932 22.9876 4.208C23.6596 4.472 24.2296 4.838 24.6976 5.306C25.1656 5.774 25.5256 6.32 25.7776 6.944C26.0296 7.556 26.1556 8.204 26.1556 8.888V9.302C26.1556 9.974 26.0356 10.616 25.7956 11.228C25.5556 11.828 25.2016 12.362 24.7336 12.83C24.2776 13.298 23.7136 13.67 23.0416 13.946C22.3696 14.21 21.5956 14.342 20.7196 14.342ZM20.7196 11.912C21.2836 11.912 21.7516 11.792 22.1236 11.552C22.4956 11.312 22.7776 10.976 22.9696 10.544C23.1736 10.112 23.2756 9.632 23.2756 9.104C23.2756 8.54 23.1736 8.048 22.9696 7.628C22.7656 7.196 22.4716 6.854 22.0876 6.602C21.7156 6.35 21.2596 6.224 20.7196 6.224C20.1916 6.224 19.7356 6.35 19.3516 6.602C18.9676 6.854 18.6736 7.196 18.4696 7.628C18.2776 8.048 18.1816 8.54 18.1816 9.104C18.1816 9.632 18.2776 10.112 18.4696 10.544C18.6616 10.976 18.9496 11.312 19.3336 11.552C19.7176 11.792 20.1796 11.912 20.7196 11.912ZM32.2336 14.324C31.5376 14.324 30.9016 14.198 30.3256 13.946C29.7616 13.694 29.2696 13.346 28.8496 12.902C28.4296 12.446 28.1056 11.912 27.8776 11.3C27.6616 10.688 27.5536 10.028 27.5536 9.32V8.906C27.5536 8.198 27.6556 7.538 27.8596 6.926C28.0756 6.314 28.3816 5.78 28.7776 5.324C29.1856 4.856 29.6716 4.496 30.2356 4.244C30.7996 3.98 31.4296 3.848 32.1256 3.848C32.9176 3.848 33.6016 4.022 34.1776 4.37C34.7536 4.706 35.2036 5.21 35.5276 5.882C35.8516 6.542 36.0316 7.358 36.0676 8.33L35.3116 7.628V0.86H38.2096V14H35.9236V9.914H36.3196C36.2836 10.85 36.0856 11.648 35.7256 12.308C35.3776 12.968 34.9036 13.472 34.3036 13.82C33.7036 14.156 33.0136 14.324 32.2336 14.324ZM32.9536 11.912C33.3976 11.912 33.7996 11.816 34.1596 11.624C34.5316 11.42 34.8256 11.126 35.0416 10.742C35.2696 10.358 35.3836 9.896 35.3836 9.356V8.69C35.3836 8.162 35.2696 7.718 35.0416 7.358C34.8136 6.998 34.5136 6.722 34.1416 6.53C33.7696 6.338 33.3676 6.242 32.9356 6.242C32.4556 6.242 32.0236 6.368 31.6396 6.62C31.2676 6.86 30.9736 7.196 30.7576 7.628C30.5416 8.048 30.4336 8.54 30.4336 9.104C30.4336 9.68 30.5416 10.178 30.7576 10.598C30.9736 11.018 31.2736 11.342 31.6576 11.57C32.0416 11.798 32.4736 11.912 32.9536 11.912ZM45.3398 14.342C44.4998 14.342 43.7558 14.198 43.1078 13.91C42.4718 13.622 41.9378 13.238 41.5058 12.758C41.0858 12.266 40.7618 11.72 40.5338 11.12C40.3178 10.508 40.2098 9.884 40.2098 9.248V8.888C40.2098 8.228 40.3178 7.598 40.5338 6.998C40.7618 6.386 41.0858 5.84 41.5058 5.36C41.9258 4.88 42.4478 4.502 43.0718 4.226C43.7078 3.938 44.4278 3.794 45.2318 3.794C46.2878 3.794 47.1758 4.034 47.8958 4.514C48.6278 4.982 49.1858 5.6 49.5698 6.368C49.9538 7.124 50.1458 7.952 50.1458 8.852V9.824H41.4158V8.186H48.3998L47.4638 8.942C47.4638 8.354 47.3798 7.85 47.2118 7.43C47.0438 7.01 46.7918 6.692 46.4558 6.476C46.1318 6.248 45.7238 6.134 45.2318 6.134C44.7278 6.134 44.3018 6.248 43.9538 6.476C43.6058 6.704 43.3418 7.04 43.1618 7.484C42.9818 7.916 42.8918 8.45 42.8918 9.086C42.8918 9.674 42.9758 10.19 43.1438 10.634C43.3118 11.066 43.5758 11.402 43.9358 11.642C44.2958 11.882 44.7638 12.002 45.3398 12.002C45.8678 12.002 46.2998 11.9 46.6358 11.696C46.9718 11.492 47.1998 11.24 47.3198 10.94H49.9658C49.8218 11.6 49.5398 12.188 49.1198 12.704C48.6998 13.22 48.1718 13.622 47.5358 13.91C46.8998 14.198 46.1678 14.342 45.3398 14.342ZM61.8995 14.324C61.0955 14.324 60.3875 14.156 59.7755 13.82C59.1635 13.472 58.6835 12.974 58.3355 12.326C57.9875 11.678 57.8015 10.886 57.7775 9.95H58.1195V14H55.8335V0.86H58.7135V7.538L58.0295 8.402C58.0655 7.406 58.2515 6.572 58.5875 5.9C58.9355 5.216 59.4095 4.706 60.0095 4.37C60.6095 4.022 61.2935 3.848 62.0615 3.848C62.7335 3.848 63.3395 3.974 63.8795 4.226C64.4315 4.466 64.8995 4.814 65.2835 5.27C65.6675 5.714 65.9615 6.242 66.1655 6.854C66.3815 7.466 66.4895 8.132 66.4895 8.852V9.248C66.4895 9.968 66.3815 10.634 66.1655 11.246C65.9615 11.858 65.6555 12.398 65.2475 12.866C64.8515 13.322 64.3715 13.682 63.8075 13.946C63.2435 14.198 62.6075 14.324 61.8995 14.324ZM61.1435 11.912C61.6355 11.912 62.0615 11.792 62.4215 11.552C62.7935 11.312 63.0815 10.976 63.2855 10.544C63.4895 10.1 63.5915 9.602 63.5915 9.05C63.5915 8.486 63.4895 7.994 63.2855 7.574C63.0815 7.154 62.7935 6.83 62.4215 6.602C62.0615 6.362 61.6355 6.242 61.1435 6.242C60.7115 6.242 60.3035 6.344 59.9195 6.548C59.5355 6.752 59.2235 7.046 58.9835 7.43C58.7555 7.802 58.6415 8.258 58.6415 8.798V9.464C58.6415 9.98 58.7615 10.424 59.0015 10.796C59.2535 11.156 59.5715 11.432 59.9555 11.624C60.3395 11.816 60.7355 11.912 61.1435 11.912ZM68.1533 17.906V15.458H70.2053C70.5173 15.458 70.7813 15.416 70.9973 15.332C71.2133 15.26 71.3873 15.134 71.5193 14.954C71.6513 14.774 71.7593 14.528 71.8433 14.216L74.2733 4.136H77.0093L74.2553 14.792C74.0633 15.56 73.7933 16.172 73.4453 16.628C73.1093 17.084 72.6533 17.408 72.0773 17.6C71.5133 17.804 70.7933 17.906 69.9173 17.906H68.1533ZM71.2493 13.784V11.534H73.3373V13.784H71.2493ZM70.0613 13.784L67.0373 4.136H69.9353L72.7973 13.784H70.0613ZM82.4682 14V0.86H85.4202V14H82.4682ZM85.0602 14V11.408H90.5682V14H85.0602ZM92.5053 14V0.86H97.3473L102.297 11.606H102.909L102.549 11.93V0.86H105.321V14H100.443L95.4933 3.254H94.8813L95.2413 2.93V14H92.5053Z" fill="#EA4080"/>
</svg>
